<?xml version="1.0" encoding="UTF-8"?>
<svg id="Layer_2" data-name="Layer 2" xmlns="http://www.w3.org/2000/svg" xmlns:xlink="http://www.w3.org/1999/xlink" viewBox="0 0 609 609">
  <defs>
    <style>
      .cls-1 {
        fill: #e6e6e6;
      }

      .cls-2 {
        stroke: none;
      }

      .cls-2, .cls-3 {
        stroke-miterlimit: 10;
      }

      .cls-2, .cls-4, .cls-5 {
        fill: #999;
      }

      .cls-3 {
        fill: none;
        stroke: #ccc;
        stroke-width: 5.26px;
      }

      .cls-3, .cls-4 {
        stroke-linecap: round;
      }

      .cls-4 {
        stroke: none;
      }

      .cls-6 {
        fill: url(#linear-gradient);
      }

      .cls-7 {
        fill: #4d4d4d;
      }

      .cls-8 {
        fill: #ffffff;
      }
    </style>
    <linearGradient id="linear-gradient" x1="295.96" y1="516.05" x2="295.96" y2="47.71" gradientUnits="userSpaceOnUse">
      <stop offset="0" stop-color="#fadb22"/>
      <stop offset=".08" stop-color="#fcb548"/>
      <stop offset=".19" stop-color="#ff7f7f"/>
      <stop offset=".34" stop-color="#ff65c0"/>
      <stop offset=".43" stop-color="#ff55ec"/>
      <stop offset=".56" stop-color="#cb60f1"/>
      <stop offset=".85" stop-color="#557cff"/>
      <stop offset=".87" stop-color="#4d70f1"/>
      <stop offset=".91" stop-color="#3b53cd"/>
      <stop offset=".96" stop-color="#1d2394"/>
      <stop offset="1" stop-color="#07006a"/>
    </linearGradient>
  </defs>
  <g id="Scratch">
    <g>
      <g>
        <g>
          <path class="cls-7" d="M304.4,601c-78.18,0-151.97-30.21-207.77-85.06C40.77,461.03,9.31,387.64,8.04,309.31c-1.28-79.19,28.35-154.14,83.43-211.04C146.56,41.37,220.51,9.32,299.7,8.04c1.63-.03,3.28-.04,4.9-.04,78.18,0,151.97,30.21,207.77,85.06,55.86,54.91,87.33,128.3,88.6,206.64,1.28,79.19-28.35,154.14-83.43,211.04-55.09,56.9-129.03,88.95-208.22,90.23-1.63.03-3.28.04-4.9.04Z"/>
          <path class="cls-1" d="M304.62,16c38.44,0,75.78,7.46,110.98,22.16,34.05,14.22,64.72,34.62,91.16,60.61,26.46,26.01,47.37,56.35,62.17,90.18,15.32,35.01,23.4,72.32,24.03,110.88.63,38.95-6.38,76.85-20.84,112.64-13.97,34.58-34.27,65.77-60.34,92.7-26.07,26.93-56.58,48.23-90.69,63.31-35.31,15.61-72.96,23.85-111.91,24.48-1.59.03-3.2.04-4.77.04-38.44,0-75.79-7.46-110.99-22.16-34.05-14.22-64.73-34.61-91.17-60.6-26.46-26.01-47.38-56.35-62.18-90.18-15.32-35.02-23.4-72.32-24.03-110.89-.63-38.95,6.38-76.85,20.84-112.64,13.97-34.58,34.27-65.77,60.34-92.7,26.07-26.93,56.58-48.23,90.69-63.31,35.31-15.61,72.96-23.85,111.91-24.48,1.58-.03,3.19-.04,4.79-.04h0M304.6,0c-1.67,0-3.36.01-5.03.04C131.42,2.77-2.68,141.29.04,309.43c2.7,166.48,138.48,299.57,304.36,299.57,1.67,0,3.36-.01,5.03-.04,168.15-2.72,302.25-141.25,299.53-309.39C606.26,133.09,470.48-.01,304.6,0h0Z"/>
        </g>
        <g>
          <path class="cls-5" d="M529.28,380.82c.12.73-.36,1.49-1.07,1.69-.56.17-1.08-.04-1.34-.5-9.81-16-22.58-28.44-36.76-39.63-7.01-5.36-14.4-10.24-22.09-14.6,5.26,3.66,10.27,7.63,15.01,11.91,10.03,9.4,18.85,20.49,24.66,33.33.29.65,0,1.49-.66,1.87-.53.32-1.17.23-1.52-.18-12-13.23-25.1-24.46-39.91-33.85-1.97-1.23-3.95-2.41-5.96-3.57.66.49,1.32.98,1.98,1.49,14.1,10.69,26.56,23.91,35.46,39.72,2.17,3.73,4.32,8.15,5.91,12.25l1.65,4.25c.49,1.51-1.56,2.83-2.37,1.32-10.68-20.94-27.02-37.68-46.09-49.6-6.97-4.41-14.37-8.18-22.07-11.27,10.9,5.87,20.78,13.58,29.31,22.5,13.72,13.83,25.03,31.52,26.99,52.65.33,3.23-3.54,5.83-5.92,3.94-2.28-1.72-4.31-3.58-6.27-5.43-5.19-4.81-10.08-9.74-14.97-14.82-6.5-6.5-12.68-13.28-19.86-19.02-20.61-16.73-47.14-26.65-74.99-21.82-2.07.24-4.96,1.03-7.05,1.43-2.43.53-5.5,1.61-7.93,2.27-1.98.77-4.14,1.58-6.13,2.3l-.88.33-.87.39c-13.92,5.99-26.22,14.4-39.26,23.38-1.22.85-2.44,1.72-3.66,2.6l-13.6-10.52c14.63-18.7,33.95-33.6,54.98-42.7.8-.33,2.53-1.12,3.28-1.43.57-.26,4.89-1.73,5.6-2.01,3-1.19,6.76-2.12,10.02-3.01-18.72,2.46-37.35,8.77-54.64,19.38-10.48,6.17-20.28,13.61-29.58,21.78l-3.89-3c21.85-24.03,47.14-40.15,73.41-47.83-28.94,4.96-57.44,18.07-82.79,40.58l-3.75-2.9c1.13-1.26,2.26-2.49,3.34-3.59,1.85-1.78,5.48-5.35,7.33-7.14,3.84-3.36,7.63-6.84,11.73-9.85,1.41-1.11,4.78-3.56,6.13-4.61,1.34-.87,4.96-3.26,6.38-4.18,2.37-1.72,6.19-3.7,8.73-5.18,4.39-2.55,9.01-4.63,13.56-6.76,5.67-2.5,11.4-4.61,17.19-6.36-11.54,2.43-23.04,6.03-34.37,10.86-11.95,5-23.62,11.46-35.36,18.67-.63.39-1.39.21-1.68-.41-.23-.48-.12-1.09.23-1.51,28.32-33.68,70.95-53.18,111.2-53.91,53.5-.43,104.99,22.85,136.95,64.29,7.66,10.44,13.99,22.52,16.26,36.01Z"/>
          <g>
            <rect class="cls-2" x="47.58" y="365" width="74.85" height="41.46" rx="19.7" ry="19.7" transform="translate(458.08 256.03) rotate(83.26)"/>
            <path class="cls-3" d="M78.96,353.73c7.42,1.42,15.64,4.83,14.97,7.13-1.43,4.92-25.04,1.49-25.16,7.68-.17,8.39,29.28-2.23,30.05,4.3.67,5.68-29.4,6.09-28.1,12.22.97,4.58,29.32-1.9,29.87,2.75s-24.86,6.25-26.18,8.85c-2.82,5.57,25.62,1.16,26.62,4.7,1.28,4.54-25.28,6.65-24.47,9.74,1.45,5.5,13.36,4.14,18.5,3.53"/>
          </g>
          <g>
            <rect class="cls-4" x="258.58" y="65" width="74.85" height="41.46" rx="19.7" ry="19.7" transform="translate(483.91 329.98) rotate(-143.72)"/>
            <path class="cls-3" d="M323.51,103.15c-6.1,4.46-14.2,8.14-15.42,6.08-2.62-4.41,15.99-19.32,11.55-23.64-6.02-5.85-18.34,22.93-23.64,19.04-4.61-3.38,15.6-25.65,10.24-28.88-4.01-2.41-18.62,22.73-22.39,19.96-3.77-2.77,12.39-22.45,11.39-25.18-2.15-5.86-18.33,17.95-21.6,16.26-4.19-2.16,12.38-23.02,9.57-24.53-5.01-2.69-12.14,6.95-15.2,11.12"/>
          </g>
        </g>
      </g>
      <g>
        <path class="cls-6" d="M377.92,565.02c-50.44,0-91.48-41.04-91.48-91.48,0-14.67,3.36-28.68,10-41.64l1.13-2.22-165.49-127.92-1.75,1.02c-6.88,4-14.75,6.12-22.76,6.12-25.02,0-45.38-20.36-45.38-45.38s20.36-45.38,45.38-45.38c9.31,0,18.25,2.8,25.86,8.09l1.47,1.02L444.73,70.5l-.04-1.89c-.01-.48-.02-.96-.02-1.44,0-23.45,19.08-42.53,42.53-42.53s42.53,19.08,42.53,42.53-19.08,42.53-42.53,42.53c-10.12,0-19.92-3.61-27.59-10.17l-1.52-1.3L151.82,253.17l.4,2.2c.48,2.64.72,5.38.72,8.15,0,4.04-.54,8.05-1.59,11.93l-.53,1.94,165.83,128.18,1.85-1.58c16.53-14.14,37.63-21.92,59.41-21.92,50.44,0,91.48,41.04,91.48,91.48s-41.04,91.48-91.48,91.48Z"/>
        <path class="cls-8" d="M487.2,27.63c21.8,0,39.53,17.73,39.53,39.53s-17.73,39.53-39.53,39.53c-9.41,0-18.51-3.36-25.64-9.45l-3.04-2.6-3.57,1.81L152.47,249.48l-4,2.02.8,4.41c.45,2.47.68,5.03.68,7.61,0,3.77-.5,7.52-1.49,11.14l-1.05,3.87,3.17,2.45,162.31,125.47,3.86,2.98,3.71-3.17c15.99-13.67,36.39-21.2,57.46-21.2,48.79,0,88.48,39.69,88.48,88.48s-39.69,88.48-88.48,88.48-88.48-39.69-88.48-88.48c0-14.19,3.25-27.74,9.67-40.27l2.27-4.43-3.94-3.05-161.93-125.16-3.19-2.47-3.49,2.03c-6.42,3.74-13.77,5.71-21.25,5.71-23.37,0-42.38-19.01-42.38-42.38s19.01-42.38,42.38-42.38c8.69,0,17.04,2.61,24.14,7.55l2.94,2.05,3.2-1.62L444.4,74.03l3.38-1.73-.09-3.78c-.01-.45-.02-.9-.02-1.36,0-21.8,17.73-39.53,39.53-39.53M487.2,21.63c-25.15,0-45.53,20.39-45.53,45.53,0,.51.01,1.01.02,1.51L135.14,223.77c-7.82-5.44-17.31-8.63-27.57-8.63-26.72,0-48.38,21.66-48.38,48.38s21.66,48.38,48.38,48.38c8.84,0,17.14-2.38,24.27-6.52l161.93,125.16c-6.6,12.9-10.32,27.52-10.32,43.01,0,52.18,42.3,94.48,94.48,94.48s94.48-42.3,94.48-94.48-42.3-94.48-94.48-94.48c-23.42,0-44.85,8.53-61.36,22.64l-162.31-125.47c1.1-4.05,1.7-8.31,1.7-12.71,0-2.97-.26-5.87-.77-8.69L457.66,101.8c7.95,6.8,18.27,10.89,29.54,10.89,25.15,0,45.53-20.39,45.53-45.53s-20.39-45.53-45.53-45.53h0Z"/>
      </g>
    </g>
  </g>
</svg>