<?xml version="1.0" encoding="UTF-8"?>
<svg id="Layer_2" data-name="Layer 2" xmlns="http://www.w3.org/2000/svg" viewBox="0 0 609 609" fill="currentColor">
  <path
    d="M304.5,607.5c-80.93,0-157.02-31.52-214.25-88.75C33.02,461.52,1.5,385.43,1.5,304.5s31.52-157.02,88.75-214.25C147.48,33.02,223.57,1.5,304.5,1.5c50.83,0,101.05,12.82,145.35,37.08-6.25,8.16-9.68,18.24-9.68,28.58,0,.2,0,.4,0,.6L135.25,222.03c-8.21-5.49-17.76-8.39-27.68-8.39-27.5,0-49.88,22.38-49.88,49.88s22.38,49.88,49.88,49.88c8.46,0,16.78-2.15,24.14-6.22l160.16,123.78c-6.5,13.12-9.93,27.81-9.93,42.58,0,52.92,43.06,95.98,95.98,95.98s95.98-43.06,95.98-95.98-43.06-95.98-95.98-95.98c-22.44,0-44.19,7.88-61.39,22.21l-13.99-10.81-13.6-10.52-10.34-7.99-3.89-3-118.75-91.79c.99-3.95,1.5-8.03,1.5-12.14,0-2.65-.2-5.28-.61-7.84L457.46,103.58c8.36,6.85,18.88,10.61,29.74,10.61,14.52,0,28.27-6.76,37.15-18.18,53.64,56.52,83.15,130.48,83.15,208.49s-31.52,157.02-88.75,214.25c-57.23,57.23-133.32,88.75-214.25,88.75Z" />
  <path
    d="M304.5,3c26.01,0,51.83,3.31,76.74,9.85,23.06,6.05,45.37,14.86,66.38,26.22-5.73,8.07-8.88,17.79-8.95,27.77L135.35,220.3c-8.29-5.35-17.85-8.16-27.78-8.16-28.33,0-51.38,23.05-51.38,51.38s23.05,51.38,51.38,51.38c8.38,0,16.63-2.05,24-5.94l158.42,122.44c-6.25,13.04-9.55,27.56-9.55,42.14,0,53.75,43.73,97.48,97.48,97.48s97.48-43.73,97.48-97.48-43.73-97.48-97.48-97.48c-22.39,0-44.1,7.72-61.42,21.79l-13.04-10.08-13.6-10.52-10.34-7.99-3.89-3-9.38-7.25-3.75-2.9-104.86-81.05c.87-3.77,1.31-7.65,1.31-11.55,0-2.36-.16-4.7-.47-6.99L457.27,105.36c8.5,6.68,19.05,10.33,29.93,10.33,14.39,0,28.06-6.45,37.24-17.4,52.62,56.07,81.56,129.17,81.56,206.21,0,40.7-7.97,80.19-23.69,117.36-15.19,35.9-36.93,68.15-64.62,95.84-27.69,27.69-59.93,49.43-95.84,64.62-37.17,15.72-76.65,23.69-117.36,23.69s-80.19-7.97-117.36-23.69c-35.9-15.19-68.15-36.93-95.84-64.62-27.69-27.69-49.43-59.93-64.62-95.84-15.72-37.17-23.69-76.65-23.69-117.36s7.97-80.19,23.69-117.36c15.19-35.9,36.93-68.15,64.62-95.84,27.69-27.69,59.93-49.43,95.84-64.62,37.17-15.72,76.65-23.69,117.36-23.69M304.5,0C136.33,0,0,136.33,0,304.5s136.33,304.5,304.5,304.5,304.5-136.33,304.5-304.5c0-81.81-32.27-156.1-84.79-210.81-8.26,11.51-21.76,19-37.01,19-11.27,0-21.59-4.09-29.54-10.89L155.18,254.84c.51,2.81.77,5.71.77,8.68,0,4.41-.59,8.66-1.7,12.72l106.41,82.25,3.75,2.9,9.38,7.25,3.89,3,10.34,7.99,13.6,10.52,14.95,11.55c16.5-14.11,37.94-22.64,61.35-22.64,52.18,0,94.48,42.3,94.48,94.48s-42.3,94.48-94.48,94.48-94.48-42.3-94.48-94.48c0-15.48,3.72-30.11,10.33-43.01l-161.93-125.15c-7.13,4.14-15.42,6.52-24.27,6.52-26.72,0-48.38-21.66-48.38-48.38s21.66-48.38,48.38-48.38c10.26,0,19.75,3.19,27.57,8.63L441.69,68.67c-.01-.5-.02-1-.02-1.51,0-11.04,3.92-21.16,10.46-29.04C408.4,13.83,358.06,0,304.5,0h0Z" />
</svg>